<svg width="24" height="24" viewBox="0 0 24 24" fill="none" xmlns="http://www.w3.org/2000/svg">
<g id="Iconly">
<path d="M-3596.25 -1917C-3596.25 -1930.25 -3585.5 -1941 -3572.25 -1941H2443.75C2457 -1941 2467.75 -1930.25 2467.75 -1917V2619C2467.75 2632.25 2457 2643 2443.75 2643H-3572.25C-3585.5 2643 -3596.25 2632.25 -3596.25 2619V-1917Z" fill="white"/>
<path d="M-3572.25 -1940H2443.75V-1942H-3572.25V-1940ZM2466.75 -1917V2619H2468.75V-1917H2466.75ZM2443.75 2642H-3572.25V2644H2443.75V2642ZM-3595.25 2619V-1917H-3597.25V2619H-3595.25ZM-3572.25 2642C-3584.95 2642 -3595.25 2631.7 -3595.25 2619H-3597.25C-3597.25 2632.81 -3586.06 2644 -3572.25 2644V2642ZM2466.75 2619C2466.75 2631.7 2456.45 2642 2443.75 2642V2644C2457.56 2644 2468.75 2632.81 2468.75 2619H2466.75ZM2443.75 -1940C2456.45 -1940 2466.75 -1929.7 2466.75 -1917H2468.75C2468.75 -1930.81 2457.56 -1942 2443.75 -1942V-1940ZM-3572.25 -1942C-3586.06 -1942 -3597.25 -1930.81 -3597.25 -1917H-3595.25C-3595.25 -1929.7 -3584.95 -1940 -3572.25 -1940V-1942Z" fill="#BABCD4"/>
<g id=" ">
<rect width="1688" height="594" transform="translate(-1408.25 -389)" fill="white"/>
<g id="Iconly/Sharp/Light/Arrow - Left">
<path id="Stroke 45" d="M5.09976 12L19.5 12" stroke="#110E47" stroke-width="1.5" stroke-linecap="square"/>
<path id="Stroke 46" d="M10.5498 18.0246L4.4998 12.0006L10.5498 5.97559" stroke="#110E47" stroke-width="1.5" stroke-linecap="square"/>
</g>
</g>
</g>
</svg>
