<svg width="24" height="24" viewBox="0 0 24 24" fill="none" xmlns="http://www.w3.org/2000/svg">
<g id="Iconly">
<path d="M-3596.25 -1805C-3596.25 -1818.25 -3585.5 -1829 -3572.25 -1829H2443.75C2457 -1829 2467.75 -1818.25 2467.75 -1805V2731C2467.75 2744.25 2457 2755 2443.75 2755H-3572.25C-3585.5 2755 -3596.25 2744.25 -3596.25 2731V-1805Z" fill="white"/>
<path d="M-3572.25 -1828H2443.75V-1830H-3572.25V-1828ZM2466.75 -1805V2731H2468.75V-1805H2466.75ZM2443.75 2754H-3572.25V2756H2443.75V2754ZM-3595.25 2731V-1805H-3597.25V2731H-3595.25ZM-3572.25 2754C-3584.95 2754 -3595.25 2743.7 -3595.25 2731H-3597.25C-3597.25 2744.81 -3586.06 2756 -3572.25 2756V2754ZM2466.75 2731C2466.75 2743.7 2456.45 2754 2443.75 2754V2756C2457.56 2756 2468.75 2744.81 2468.75 2731H2466.75ZM2443.75 -1828C2456.45 -1828 2466.75 -1817.7 2466.75 -1805H2468.75C2468.75 -1818.81 2457.56 -1830 2443.75 -1830V-1828ZM-3572.25 -1830C-3586.06 -1830 -3597.25 -1818.81 -3597.25 -1805H-3595.25C-3595.25 -1817.7 -3584.95 -1828 -3572.25 -1828V-1830Z" fill="#BABCD4"/>
<g id=" ">
<rect width="1688" height="594" transform="translate(-1408.25 -277)" fill="white"/>
<g id="Iconly/Sharp/Light/Arrow - Right">
<path id="Stroke 45" d="M18.9001 12.0001L4.49988 12.0001" stroke="#110E47" stroke-width="1.5" stroke-linecap="square"/>
<path id="Stroke 46" d="M13.4501 5.97554L19.5001 11.9995L13.4501 18.0245" stroke="#110E47" stroke-width="1.5" stroke-linecap="square"/>
</g>
</g>
</g>
</svg>
