<svg width="24" height="24" viewBox="0 0 24 24" fill="none" xmlns="http://www.w3.org/2000/svg">
<g id="Iconly">
<path d="M-2508.25 -1749C-2508.25 -1762.25 -2497.5 -1773 -2484.25 -1773H3531.75C3545 -1773 3555.75 -1762.25 3555.75 -1749V2787C3555.75 2800.25 3545 2811 3531.75 2811H-2484.25C-2497.5 2811 -2508.25 2800.25 -2508.25 2787V-1749Z" fill="white"/>
<path d="M-2484.25 -1772H3531.75V-1774H-2484.25V-1772ZM3554.75 -1749V2787H3556.75V-1749H3554.75ZM3531.75 2810H-2484.25V2812H3531.75V2810ZM-2507.25 2787V-1749H-2509.25V2787H-2507.25ZM-2484.25 2810C-2496.95 2810 -2507.25 2799.7 -2507.25 2787H-2509.25C-2509.25 2800.81 -2498.06 2812 -2484.25 2812V2810ZM3554.75 2787C3554.75 2799.7 3544.45 2810 3531.75 2810V2812C3545.56 2812 3556.75 2800.81 3556.75 2787H3554.75ZM3531.75 -1772C3544.45 -1772 3554.75 -1761.7 3554.75 -1749H3556.75C3556.75 -1762.81 3545.56 -1774 3531.75 -1774V-1772ZM-2484.25 -1774C-2498.06 -1774 -2509.25 -1762.81 -2509.25 -1749H-2507.25C-2507.25 -1761.7 -2496.95 -1772 -2484.25 -1772V-1774Z" fill="#BABCD4"/>
<g id=" ">
<rect width="1688" height="594" transform="translate(-320.25 -221)" fill="white"/>
<g id="Iconly/Sharp/Light/Bookmark">
<path id="Stroke 1" fill-rule="evenodd" clip-rule="evenodd" d="M19.4776 2.75C13.6373 2.75 10.3628 2.75 4.52246 2.75V21.25L12.0251 17.8045L19.4776 21.25V2.75Z" stroke="#110E47" stroke-width="1.5" stroke-linecap="square"/>
<path id="Stroke 3" d="M8.47839 9.22534H15.5218" stroke="#110E47" stroke-width="1.5" stroke-linecap="square"/>
</g>
</g>
</g>
</svg>
