<svg width="24" height="24" viewBox="0 0 24 24" fill="none" xmlns="http://www.w3.org/2000/svg">
<g id="Iconly">
<path d="M-2732.25 -1749C-2732.25 -1762.25 -2721.5 -1773 -2708.25 -1773H3307.75C3321 -1773 3331.75 -1762.25 3331.75 -1749V2787C3331.75 2800.25 3321 2811 3307.75 2811H-2708.25C-2721.5 2811 -2732.25 2800.25 -2732.25 2787V-1749Z" fill="white"/>
<path d="M-2708.25 -1772H3307.75V-1774H-2708.25V-1772ZM3330.75 -1749V2787H3332.75V-1749H3330.75ZM3307.75 2810H-2708.25V2812H3307.75V2810ZM-2731.25 2787V-1749H-2733.25V2787H-2731.25ZM-2708.25 2810C-2720.95 2810 -2731.25 2799.7 -2731.25 2787H-2733.25C-2733.25 2800.81 -2722.06 2812 -2708.25 2812V2810ZM3330.75 2787C3330.75 2799.7 3320.45 2810 3307.75 2810V2812C3321.56 2812 3332.75 2800.81 3332.75 2787H3330.75ZM3307.75 -1772C3320.45 -1772 3330.75 -1761.7 3330.75 -1749H3332.75C3332.75 -1762.81 3321.56 -1774 3307.75 -1774V-1772ZM-2708.25 -1774C-2722.06 -1774 -2733.25 -1762.81 -2733.25 -1749H-2731.25C-2731.25 -1761.7 -2720.95 -1772 -2708.25 -1772V-1774Z" fill="#BABCD4"/>
<g id=" ">
<rect width="1688" height="594" transform="translate(-544.25 -221)" fill="white"/>
<g id="Iconly/Sharp/Light/Chat">
<path id="Stroke 19" fill-rule="evenodd" clip-rule="evenodd" d="M18.5481 18.5225C16.693 20.3778 14.2512 21.2761 11.8247 21.2237C8.5295 21.1525 2.75 21.2042 2.75 21.2042L4.77533 17.9754C4.77533 17.9754 2.79819 15.0387 2.79819 12.0045C2.79644 9.64195 3.69595 7.27993 5.50162 5.47466C9.10096 1.874 14.9487 1.874 18.5481 5.47373C22.1539 9.07996 22.1474 14.9228 18.5481 18.5225Z" stroke="#110E47" stroke-width="1.5" stroke-linecap="round"/>
<path id="Stroke 16" d="M8.31468 12.3808H8.21593" stroke="#110E47" stroke-width="1.5" stroke-linecap="square"/>
<path id="Stroke 17" d="M12.0489 12.3809H11.9502" stroke="#110E47" stroke-width="1.5" stroke-linecap="square"/>
<path id="Stroke 18" d="M15.7833 12.3808H15.6846" stroke="#110E47" stroke-width="1.5" stroke-linecap="square"/>
</g>
</g>
</g>
</svg>
