<svg width="24" height="24" viewBox="0 0 24 24" fill="none" xmlns="http://www.w3.org/2000/svg">
<g id="Iconly">
<path d="M-3292.25 -1804.53C-3292.25 -1817.79 -3281.5 -1828.53 -3268.25 -1828.53H2747.75C2761 -1828.53 2771.75 -1817.79 2771.75 -1804.53V2731.47C2771.75 2744.72 2761 2755.47 2747.75 2755.47H-3268.25C-3281.5 2755.47 -3292.25 2744.72 -3292.25 2731.47V-1804.53Z" fill="white"/>
<path d="M-3268.25 -1827.53H2747.75V-1829.53H-3268.25V-1827.53ZM2770.75 -1804.53V2731.47H2772.75V-1804.53H2770.75ZM2747.75 2754.47H-3268.25V2756.47H2747.75V2754.47ZM-3291.25 2731.47V-1804.53H-3293.25V2731.47H-3291.25ZM-3268.25 2754.47C-3280.95 2754.47 -3291.25 2744.17 -3291.25 2731.47H-3293.25C-3293.25 2745.27 -3282.06 2756.47 -3268.25 2756.47V2754.47ZM2770.75 2731.47C2770.75 2744.17 2760.45 2754.47 2747.75 2754.47V2756.47C2761.56 2756.47 2772.75 2745.27 2772.75 2731.47H2770.75ZM2747.75 -1827.53C2760.45 -1827.53 2770.75 -1817.24 2770.75 -1804.53H2772.75C2772.75 -1818.34 2761.56 -1829.53 2747.75 -1829.53V-1827.53ZM-3268.25 -1829.53C-3282.06 -1829.53 -3293.25 -1818.34 -3293.25 -1804.53H-3291.25C-3291.25 -1817.24 -3280.95 -1827.53 -3268.25 -1827.53V-1829.53Z" fill="#BABCD4"/>
<g id=" ">
<rect width="1688" height="594" transform="translate(-1104.25 -276.535)" fill="white"/>
<g id="Iconly/Sharp/Light/Close Square">
<path id="Stroke 19" d="M14.3955 9.59473L9.60352 14.3867" stroke="#110E47" stroke-width="1.5" stroke-linecap="square"/>
<path id="Stroke 20" d="M14.3956 14.3898L9.59961 9.59277" stroke="#110E47" stroke-width="1.5" stroke-linecap="square"/>
<path id="Stroke 21" fill-rule="evenodd" clip-rule="evenodd" d="M12 21.25C17.1086 21.25 21.25 17.1086 21.25 12C21.25 6.89137 17.1086 2.75 12 2.75C6.89137 2.75 2.75 6.89137 2.75 12C2.75 17.1086 6.89137 21.25 12 21.25Z" stroke="#110E47" stroke-width="1.5" stroke-linecap="round"/>
</g>
</g>
</g>
</svg>
