<svg width="24" height="24" viewBox="0 0 24 24" fill="none" xmlns="http://www.w3.org/2000/svg">
<g id="Iconly">
<path d="M-3180.25 -1804.53C-3180.25 -1817.79 -3169.5 -1828.53 -3156.25 -1828.53H2859.75C2873 -1828.53 2883.75 -1817.79 2883.75 -1804.53V2731.47C2883.75 2744.72 2873 2755.47 2859.75 2755.47H-3156.25C-3169.5 2755.47 -3180.25 2744.72 -3180.25 2731.47V-1804.53Z" fill="white"/>
<path d="M-3156.25 -1827.53H2859.75V-1829.53H-3156.25V-1827.53ZM2882.75 -1804.53V2731.47H2884.75V-1804.53H2882.75ZM2859.75 2754.47H-3156.25V2756.47H2859.75V2754.47ZM-3179.25 2731.47V-1804.53H-3181.25V2731.47H-3179.25ZM-3156.25 2754.47C-3168.95 2754.47 -3179.25 2744.17 -3179.25 2731.47H-3181.25C-3181.25 2745.27 -3170.06 2756.47 -3156.25 2756.47V2754.47ZM2882.75 2731.47C2882.75 2744.17 2872.45 2754.47 2859.75 2754.47V2756.47C2873.56 2756.47 2884.75 2745.27 2884.75 2731.47H2882.75ZM2859.75 -1827.53C2872.45 -1827.53 2882.75 -1817.24 2882.75 -1804.53H2884.75C2884.75 -1818.34 2873.56 -1829.53 2859.75 -1829.53V-1827.53ZM-3156.25 -1829.53C-3170.06 -1829.53 -3181.25 -1818.34 -3181.25 -1804.53H-3179.25C-3179.25 -1817.24 -3168.95 -1827.53 -3156.25 -1827.53V-1829.53Z" fill="#BABCD4"/>
<g id=" ">
<rect width="1688" height="594" transform="translate(-992.25 -276.535)" fill="white"/>
<g id="Iconly/Sharp/Light/Danger Circle">
<path id="Stroke 6" fill-rule="evenodd" clip-rule="evenodd" d="M12 2.75C17.108 2.75 21.25 6.891 21.25 12C21.25 17.108 17.108 21.25 12 21.25C6.891 21.25 2.75 17.108 2.75 12C2.75 6.891 6.891 2.75 12 2.75Z" stroke="#110E47" stroke-width="1.5" stroke-linecap="round" stroke-linejoin="round"/>
<path id="Stroke 7" d="M11.9951 8.2041V12.6231" stroke="#110E47" stroke-width="1.5" stroke-linecap="square" stroke-linejoin="round"/>
<path id="Stroke 5" d="M11.995 15.7959H12.005" stroke="#110E47" stroke-width="1.5" stroke-linecap="square" stroke-linejoin="round"/>
</g>
</g>
</g>
</svg>
