<svg width="24" height="24" viewBox="0 0 24 24" fill="none" xmlns="http://www.w3.org/2000/svg">
<g id="Iconly">
<path d="M-2396.25 -1915.6C-2396.25 -1928.86 -2385.5 -1939.6 -2372.25 -1939.6H3643.75C3657 -1939.6 3667.75 -1928.86 3667.75 -1915.6V2620.4C3667.75 2633.65 3657 2644.4 3643.75 2644.4H-2372.25C-2385.5 2644.4 -2396.25 2633.65 -2396.25 2620.4V-1915.6Z" fill="white"/>
<path d="M-2372.25 -1938.6H3643.75V-1940.6H-2372.25V-1938.6ZM3666.75 -1915.6V2620.4H3668.75V-1915.6H3666.75ZM3643.75 2643.4H-2372.25V2645.4H3643.75V2643.4ZM-2395.25 2620.4V-1915.6H-2397.25V2620.4H-2395.25ZM-2372.25 2643.4C-2384.95 2643.4 -2395.25 2633.1 -2395.25 2620.4H-2397.25C-2397.25 2634.2 -2386.06 2645.4 -2372.25 2645.4V2643.4ZM3666.75 2620.4C3666.75 2633.1 3656.45 2643.4 3643.75 2643.4V2645.4C3657.56 2645.4 3668.75 2634.2 3668.75 2620.4H3666.75ZM3643.75 -1938.6C3656.45 -1938.6 3666.75 -1928.31 3666.75 -1915.6H3668.75C3668.75 -1929.41 3657.56 -1940.6 3643.75 -1940.6V-1938.6ZM-2372.25 -1940.6C-2386.06 -1940.6 -2397.25 -1929.41 -2397.25 -1915.6H-2395.25C-2395.25 -1928.31 -2384.95 -1938.6 -2372.25 -1938.6V-1940.6Z" fill="#BABCD4"/>
<g id=" ">
<rect width="1688" height="594" transform="translate(-208.25 -387.604)" fill="white"/>
<g id="Iconly/Sharp/Light/Delete">
<path id="Rectangle 1137" d="M4.62598 7.40259H19.3736L18.0473 21.25H5.95222L4.62598 7.40259Z" stroke="#110E47" stroke-width="1.5" stroke-linecap="square"/>
<path id="Rectangle 1138" d="M7.81165 2.75H16.1883" stroke="#110E47" stroke-width="1.5" stroke-linecap="square"/>
<path id="Rectangle 1139" d="M12.0001 11.9995L12.0001 16.6525" stroke="#110E47" stroke-width="1.5" stroke-linecap="square"/>
</g>
</g>
</g>
</svg>
