<svg width="24" height="24" viewBox="0 0 24 24" fill="none" xmlns="http://www.w3.org/2000/svg">
<g id="Iconly">
<path d="M-3292.25 -1861C-3292.25 -1874.25 -3281.5 -1885 -3268.25 -1885H2747.75C2761 -1885 2771.75 -1874.25 2771.75 -1861V2675C2771.75 2688.25 2761 2699 2747.75 2699H-3268.25C-3281.5 2699 -3292.25 2688.25 -3292.25 2675V-1861Z" fill="white"/>
<path d="M-3268.25 -1884H2747.75V-1886H-3268.25V-1884ZM2770.75 -1861V2675H2772.75V-1861H2770.75ZM2747.75 2698H-3268.25V2700H2747.75V2698ZM-3291.25 2675V-1861H-3293.25V2675H-3291.25ZM-3268.25 2698C-3280.95 2698 -3291.25 2687.7 -3291.25 2675H-3293.25C-3293.25 2688.81 -3282.06 2700 -3268.25 2700V2698ZM2770.75 2675C2770.75 2687.7 2760.45 2698 2747.75 2698V2700C2761.56 2700 2772.75 2688.81 2772.75 2675H2770.75ZM2747.75 -1884C2760.45 -1884 2770.75 -1873.7 2770.75 -1861H2772.75C2772.75 -1874.81 2761.56 -1886 2747.75 -1886V-1884ZM-3268.25 -1886C-3282.06 -1886 -3293.25 -1874.81 -3293.25 -1861H-3291.25C-3291.25 -1873.7 -3280.95 -1884 -3268.25 -1884V-1886Z" fill="#BABCD4"/>
<g id=" ">
<rect width="1688" height="594" transform="translate(-1104.25 -333)" fill="white"/>
<g id="Iconly/Sharp/Light/Download">
<path id="Stroke 10" d="M11.9997 15.935V3.15723" stroke="#110E47" stroke-width="1.5" stroke-linecap="square"/>
<path id="Stroke 11" d="M8.7251 13.395L12.0001 16.6846L15.2761 13.395" stroke="#110E47" stroke-width="1.5" stroke-linecap="square"/>
<path id="Rectangle 1131" d="M16.625 9.41406H21.25V20.8429H2.75V9.41406H7.375" stroke="#110E47" stroke-width="1.5" stroke-linecap="square"/>
</g>
</g>
</g>
</svg>
