<svg width="24" height="24" viewBox="0 0 24 24" fill="none" xmlns="http://www.w3.org/2000/svg">
<g id="Iconly">
<path d="M-2452.25 -1915.6C-2452.25 -1928.86 -2441.5 -1939.6 -2428.25 -1939.6H3587.75C3601 -1939.6 3611.75 -1928.86 3611.75 -1915.6V2620.4C3611.75 2633.65 3601 2644.4 3587.75 2644.4H-2428.25C-2441.5 2644.4 -2452.25 2633.65 -2452.25 2620.4V-1915.6Z" fill="white"/>
<path d="M-2428.25 -1938.6H3587.75V-1940.6H-2428.25V-1938.6ZM3610.75 -1915.6V2620.4H3612.75V-1915.6H3610.75ZM3587.75 2643.4H-2428.25V2645.4H3587.75V2643.4ZM-2451.25 2620.4V-1915.6H-2453.25V2620.4H-2451.25ZM-2428.25 2643.4C-2440.95 2643.4 -2451.25 2633.1 -2451.25 2620.4H-2453.25C-2453.25 2634.2 -2442.06 2645.4 -2428.25 2645.4V2643.4ZM3610.75 2620.4C3610.75 2633.1 3600.45 2643.4 3587.75 2643.4V2645.4C3601.56 2645.4 3612.75 2634.2 3612.75 2620.4H3610.75ZM3587.75 -1938.6C3600.45 -1938.6 3610.75 -1928.31 3610.75 -1915.6H3612.75C3612.75 -1929.41 3601.56 -1940.6 3587.75 -1940.6V-1938.6ZM-2428.25 -1940.6C-2442.06 -1940.6 -2453.25 -1929.41 -2453.25 -1915.6H-2451.25C-2451.25 -1928.31 -2440.95 -1938.6 -2428.25 -1938.6V-1940.6Z" fill="#BABCD4"/>
<g id=" ">
<rect width="1688" height="594" transform="translate(-264.25 -387.604)" fill="white"/>
<g id="Iconly/Sharp/Light/Edit">
<path id="Rectangle 1134" d="M16.1006 3L21 7.89939L7.89939 21L3.00461 20.9954L3 16.1006L16.1006 3Z" stroke="#110E47" stroke-width="1.5" stroke-linecap="square"/>
<path id="Rectangle 1135" d="M20.3222 20.9947L3.00488 20.9941" stroke="#110E47" stroke-width="1.5" stroke-linecap="square"/>
</g>
</g>
</g>
</svg>
