<svg width="24" height="24" viewBox="0 0 24 24" fill="none" xmlns="http://www.w3.org/2000/svg">
<g id="Iconly">
<path d="M-2844.25 -1915.6C-2844.25 -1928.86 -2833.5 -1939.6 -2820.25 -1939.6H3195.75C3209 -1939.6 3219.75 -1928.86 3219.75 -1915.6V2620.4C3219.75 2633.65 3209 2644.4 3195.75 2644.4H-2820.25C-2833.5 2644.4 -2844.25 2633.65 -2844.25 2620.4V-1915.6Z" fill="white"/>
<path d="M-2820.25 -1938.6H3195.75V-1940.6H-2820.25V-1938.6ZM3218.75 -1915.6V2620.4H3220.75V-1915.6H3218.75ZM3195.75 2643.4H-2820.25V2645.4H3195.75V2643.4ZM-2843.25 2620.4V-1915.6H-2845.25V2620.4H-2843.25ZM-2820.25 2643.4C-2832.95 2643.4 -2843.25 2633.1 -2843.25 2620.4H-2845.25C-2845.25 2634.2 -2834.06 2645.4 -2820.25 2645.4V2643.4ZM3218.75 2620.4C3218.75 2633.1 3208.45 2643.4 3195.75 2643.4V2645.4C3209.56 2645.4 3220.75 2634.2 3220.75 2620.4H3218.75ZM3195.75 -1938.6C3208.45 -1938.6 3218.75 -1928.31 3218.75 -1915.6H3220.75C3220.75 -1929.41 3209.56 -1940.6 3195.75 -1940.6V-1938.6ZM-2820.25 -1940.6C-2834.06 -1940.6 -2845.25 -1929.41 -2845.25 -1915.6H-2843.25C-2843.25 -1928.31 -2832.95 -1938.6 -2820.25 -1938.6V-1940.6Z" fill="#BABCD4"/>
<g id=" ">
<rect width="1688" height="594" transform="translate(-656.25 -387.604)" fill="white"/>
<g id="Iconly/Sharp/Light/Filter">
<path id="Stroke 3" d="M9.24512 7.25391H18.8872" stroke="#110E47" stroke-width="1.5" stroke-linecap="square"/>
<path id="Stroke 5" fill-rule="evenodd" clip-rule="evenodd" d="M9.26039 7.19391C9.26039 5.75184 8.08265 4.58252 6.63019 4.58252C5.17774 4.58252 4 5.75184 4 7.19391C4 8.63599 5.17774 9.80531 6.63019 9.80531C8.08265 9.80531 9.26039 8.63599 9.26039 7.19391Z" stroke="#110E47" stroke-width="1.5" stroke-linecap="square"/>
<path id="Stroke 8" d="M14.7549 16.8667H5.11285" stroke="#110E47" stroke-width="1.5" stroke-linecap="square"/>
<path id="Stroke 9" fill-rule="evenodd" clip-rule="evenodd" d="M14.7396 16.8062C14.7396 15.3641 15.9174 14.1948 17.3698 14.1948C18.8223 14.1948 20 15.3641 20 16.8062C20 18.2483 18.8223 19.4176 17.3698 19.4176C15.9174 19.4176 14.7396 18.2483 14.7396 16.8062Z" stroke="#110E47" stroke-width="1.5" stroke-linecap="square"/>
</g>
</g>
</g>
</svg>
