<svg width="24" height="24" viewBox="0 0 24 24" fill="none" xmlns="http://www.w3.org/2000/svg">
<g id="Iconly">
<path d="M-2788.25 -1749C-2788.25 -1762.25 -2777.5 -1773 -2764.25 -1773H3251.75C3265 -1773 3275.75 -1762.25 3275.75 -1749V2787C3275.75 2800.25 3265 2811 3251.75 2811H-2764.25C-2777.5 2811 -2788.25 2800.25 -2788.25 2787V-1749Z" fill="white"/>
<path d="M-2764.25 -1772H3251.75V-1774H-2764.25V-1772ZM3274.75 -1749V2787H3276.75V-1749H3274.75ZM3251.75 2810H-2764.25V2812H3251.75V2810ZM-2787.25 2787V-1749H-2789.25V2787H-2787.25ZM-2764.25 2810C-2776.95 2810 -2787.25 2799.7 -2787.25 2787H-2789.25C-2789.25 2800.81 -2778.06 2812 -2764.25 2812V2810ZM3274.75 2787C3274.75 2799.7 3264.45 2810 3251.75 2810V2812C3265.56 2812 3276.75 2800.81 3276.75 2787H3274.75ZM3251.75 -1772C3264.45 -1772 3274.75 -1761.7 3274.75 -1749H3276.75C3276.75 -1762.81 3265.56 -1774 3251.75 -1774V-1772ZM-2764.25 -1774C-2778.06 -1774 -2789.25 -1762.81 -2789.25 -1749H-2787.25C-2787.25 -1761.7 -2776.95 -1772 -2764.25 -1772V-1774Z" fill="#BABCD4"/>
<g id=" ">
<rect width="1688" height="594" transform="translate(-600.25 -221)" fill="white"/>
<g id="Iconly/Sharp/Light/Heart">
<path id="Union" d="M21.2499 9.63556C21.24 7.09969 19.9096 4.71489 17.2866 3.86991C15.4855 3.28869 13.5236 3.61191 12 5.79939C10.4764 3.61191 8.51447 3.28869 6.71339 3.86991C4.09014 4.71498 2.75971 7.10024 2.75008 9.63643C2.72582 14.6801 7.83662 18.5397 11.9987 20.3844L12 20.3838L12.0013 20.3844C16.1636 18.5396 21.2748 14.6797 21.2499 9.63556Z" stroke="#110E47" stroke-width="1.5" stroke-linecap="square"/>
</g>
</g>
</g>
</svg>
