<svg width="24" height="24" viewBox="0 0 24 24" fill="none" xmlns="http://www.w3.org/2000/svg">
<g id="Iconly">
<path d="M-2788.25 -1915.6C-2788.25 -1928.86 -2777.5 -1939.6 -2764.25 -1939.6H3251.75C3265 -1939.6 3275.75 -1928.86 3275.75 -1915.6V2620.4C3275.75 2633.65 3265 2644.4 3251.75 2644.4H-2764.25C-2777.5 2644.4 -2788.25 2633.65 -2788.25 2620.4V-1915.6Z" fill="white"/>
<path d="M-2764.25 -1938.6H3251.75V-1940.6H-2764.25V-1938.6ZM3274.75 -1915.6V2620.4H3276.75V-1915.6H3274.75ZM3251.75 2643.4H-2764.25V2645.4H3251.75V2643.4ZM-2787.25 2620.4V-1915.6H-2789.25V2620.4H-2787.25ZM-2764.25 2643.4C-2776.95 2643.4 -2787.25 2633.1 -2787.25 2620.4H-2789.25C-2789.25 2634.2 -2778.06 2645.4 -2764.25 2645.4V2643.4ZM3274.75 2620.4C3274.75 2633.1 3264.45 2643.4 3251.75 2643.4V2645.4C3265.56 2645.4 3276.75 2634.2 3276.75 2620.4H3274.75ZM3251.75 -1938.6C3264.45 -1938.6 3274.75 -1928.31 3274.75 -1915.6H3276.75C3276.75 -1929.41 3265.56 -1940.6 3251.75 -1940.6V-1938.6ZM-2764.25 -1940.6C-2778.06 -1940.6 -2789.25 -1929.41 -2789.25 -1915.6H-2787.25C-2787.25 -1928.31 -2776.95 -1938.6 -2764.25 -1938.6V-1940.6Z" fill="#BABCD4"/>
<g id=" ">
<rect width="1688" height="594" transform="translate(-600.25 -387.604)" fill="white"/>
<g id="Iconly/Sharp/Light/Hide">
<path id="Stroke 18" d="M21.25 7.40678C19.289 11.5349 15.806 14.0114 11.998 14.0114H12.002C8.194 14.0114 4.711 11.5349 2.75 7.40678" stroke="#110E47" stroke-width="1.5" stroke-linecap="square"/>
<path id="Vector 25" d="M18.5897 11.2754L20.7008 13.3865" stroke="#110E47" stroke-width="1.5" stroke-linecap="square"/>
<path id="Vector 27" d="M5.3313 11.2754L3.22019 13.3865" stroke="#110E47" stroke-width="1.5" stroke-linecap="square"/>
<path id="Vector 26" d="M15.1768 16.5929L14.3323 13.6833" stroke="#110E47" stroke-width="1.5" stroke-linecap="square"/>
<path id="Vector 28" d="M8.74338 16.5931L9.58789 13.6836" stroke="#110E47" stroke-width="1.5" stroke-linecap="square"/>
</g>
</g>
</g>
</svg>
