<svg width="24" height="24" viewBox="0 0 24 24" fill="none" xmlns="http://www.w3.org/2000/svg">
<g id="Iconly">
<path d="M-2620.25 -1749C-2620.25 -1762.25 -2609.5 -1773 -2596.25 -1773H3419.75C3433 -1773 3443.75 -1762.25 3443.75 -1749V2787C3443.75 2800.25 3433 2811 3419.75 2811H-2596.25C-2609.5 2811 -2620.25 2800.25 -2620.25 2787V-1749Z" fill="white"/>
<path d="M-2596.25 -1772H3419.75V-1774H-2596.25V-1772ZM3442.75 -1749V2787H3444.75V-1749H3442.75ZM3419.75 2810H-2596.25V2812H3419.75V2810ZM-2619.25 2787V-1749H-2621.25V2787H-2619.25ZM-2596.25 2810C-2608.95 2810 -2619.25 2799.7 -2619.25 2787H-2621.25C-2621.25 2800.81 -2610.06 2812 -2596.25 2812V2810ZM3442.75 2787C3442.75 2799.7 3432.45 2810 3419.75 2810V2812C3433.56 2812 3444.75 2800.81 3444.75 2787H3442.75ZM3419.75 -1772C3432.45 -1772 3442.75 -1761.7 3442.75 -1749H3444.75C3444.75 -1762.81 3433.56 -1774 3419.75 -1774V-1772ZM-2596.25 -1774C-2610.06 -1774 -2621.25 -1762.81 -2621.25 -1749H-2619.25C-2619.25 -1761.7 -2608.95 -1772 -2596.25 -1772V-1774Z" fill="#BABCD4"/>
<g id=" ">
<rect width="1688" height="594" transform="translate(-432.25 -221)" fill="white"/>
<g id="Iconly/Sharp/Light/Home">
<path id="Vector 13" d="M1.93359 11.3755L11.9998 2.75L22.0659 11.3755" stroke="#110E47" stroke-width="1.5" stroke-linecap="square"/>
<path id="Vector 14" d="M4.09277 10.1592V21.2501H19.9103V10.1592" stroke="#110E47" stroke-width="1.5" stroke-linecap="square"/>
<path id="Vector 15" d="M11.9998 12.7048L11.9998 16.1132" stroke="#110E47" stroke-width="1.5" stroke-linecap="square"/>
</g>
</g>
</g>
</svg>
