<svg width="24" height="24" viewBox="0 0 24 24" fill="none" xmlns="http://www.w3.org/2000/svg">
<g id="Iconly">
<path d="M-3124.25 -1804.53C-3124.25 -1817.79 -3113.5 -1828.53 -3100.25 -1828.53H2915.75C2929 -1828.53 2939.75 -1817.79 2939.75 -1804.53V2731.47C2939.75 2744.72 2929 2755.47 2915.75 2755.47H-3100.25C-3113.5 2755.47 -3124.25 2744.72 -3124.25 2731.47V-1804.53Z" fill="white"/>
<path d="M-3100.25 -1827.53H2915.75V-1829.53H-3100.25V-1827.53ZM2938.75 -1804.53V2731.47H2940.75V-1804.53H2938.75ZM2915.75 2754.47H-3100.25V2756.47H2915.75V2754.47ZM-3123.25 2731.47V-1804.53H-3125.25V2731.47H-3123.25ZM-3100.25 2754.47C-3112.95 2754.47 -3123.25 2744.17 -3123.25 2731.47H-3125.25C-3125.25 2745.27 -3114.06 2756.47 -3100.25 2756.47V2754.47ZM2938.75 2731.47C2938.75 2744.17 2928.45 2754.47 2915.75 2754.47V2756.47C2929.56 2756.47 2940.75 2745.27 2940.75 2731.47H2938.75ZM2915.75 -1827.53C2928.45 -1827.53 2938.75 -1817.24 2938.75 -1804.53H2940.75C2940.75 -1818.34 2929.56 -1829.53 2915.75 -1829.53V-1827.53ZM-3100.25 -1829.53C-3114.06 -1829.53 -3125.25 -1818.34 -3125.25 -1804.53H-3123.25C-3123.25 -1817.24 -3112.95 -1827.53 -3100.25 -1827.53V-1829.53Z" fill="#BABCD4"/>
<g id=" ">
<rect width="1688" height="594" transform="translate(-936.25 -276.535)" fill="white"/>
<g id="Iconly/Sharp/Light/Info Square">
<path id="Stroke 8" d="M11.9941 16V12" stroke="#110E47" stroke-width="1.5" stroke-linecap="square" stroke-linejoin="round"/>
<path id="Stroke 9" d="M11.9901 8.2041H12.0001" stroke="#110E47" stroke-width="1.5" stroke-linecap="square" stroke-linejoin="round"/>
<path id="Stroke 1" fill-rule="evenodd" clip-rule="evenodd" d="M21.25 21.25L21.25 2.75L2.75 2.75L2.75 21.25L21.25 21.25Z" stroke="#110E47" stroke-width="1.5" stroke-linecap="round"/>
</g>
</g>
</g>
</svg>
