<svg width="24" height="24" viewBox="0 0 24 24" fill="none" xmlns="http://www.w3.org/2000/svg">
<g id="Iconly">
<path d="M-2676.25 -1749C-2676.25 -1762.25 -2665.5 -1773 -2652.25 -1773H3363.75C3377 -1773 3387.75 -1762.25 3387.75 -1749V2787C3387.75 2800.25 3377 2811 3363.75 2811H-2652.25C-2665.5 2811 -2676.25 2800.25 -2676.25 2787V-1749Z" fill="white"/>
<path d="M-2652.25 -1772H3363.75V-1774H-2652.25V-1772ZM3386.75 -1749V2787H3388.75V-1749H3386.75ZM3363.75 2810H-2652.25V2812H3363.75V2810ZM-2675.25 2787V-1749H-2677.25V2787H-2675.25ZM-2652.25 2810C-2664.95 2810 -2675.25 2799.7 -2675.25 2787H-2677.25C-2677.25 2800.81 -2666.06 2812 -2652.25 2812V2810ZM3386.75 2787C3386.75 2799.7 3376.45 2810 3363.75 2810V2812C3377.56 2812 3388.75 2800.81 3388.75 2787H3386.75ZM3363.75 -1772C3376.45 -1772 3386.75 -1761.7 3386.75 -1749H3388.75C3388.75 -1762.81 3377.56 -1774 3363.75 -1774V-1772ZM-2652.25 -1774C-2666.06 -1774 -2677.25 -1762.81 -2677.25 -1749H-2675.25C-2675.25 -1761.7 -2664.95 -1772 -2652.25 -1772V-1774Z" fill="#BABCD4"/>
<g id=" ">
<rect width="1688" height="594" transform="translate(-488.25 -221)" fill="white"/>
<g id="Iconly/Sharp/Light/Notification">
<path id="Rectangle 1140" d="M5.81186 8.93778C5.81186 5.52036 8.58222 2.75 11.9996 2.75C15.417 2.75 18.1874 5.52036 18.1874 8.93777V13.5184L19.8 17.8572H4.19922L5.81186 13.5184V8.93778Z" stroke="#110E47" stroke-width="1.5"/>
<path id="Rectangle 1141" d="M15.1673 17.8574V18.0834C15.1673 19.8323 13.7496 21.2501 12.0007 21.2501C10.2517 21.2501 8.83398 19.8323 8.83398 18.0834V17.8574" stroke="#110E47" stroke-width="1.5"/>
</g>
</g>
</g>
</svg>
