<svg width="24" height="24" viewBox="0 0 24 24" fill="none" xmlns="http://www.w3.org/2000/svg">
<g id="Iconly">
<path d="M-2956.25 -1861C-2956.25 -1874.25 -2945.5 -1885 -2932.25 -1885H3083.75C3097 -1885 3107.75 -1874.25 3107.75 -1861V2675C3107.75 2688.25 3097 2699 3083.75 2699H-2932.25C-2945.5 2699 -2956.25 2688.25 -2956.25 2675V-1861Z" fill="white"/>
<path d="M-2932.25 -1884H3083.75V-1886H-2932.25V-1884ZM3106.75 -1861V2675H3108.75V-1861H3106.75ZM3083.75 2698H-2932.25V2700H3083.75V2698ZM-2955.25 2675V-1861H-2957.25V2675H-2955.25ZM-2932.25 2698C-2944.95 2698 -2955.25 2687.7 -2955.25 2675H-2957.25C-2957.25 2688.81 -2946.06 2700 -2932.25 2700V2698ZM3106.75 2675C3106.75 2687.7 3096.45 2698 3083.75 2698V2700C3097.56 2700 3108.75 2688.81 3108.75 2675H3106.75ZM3083.75 -1884C3096.45 -1884 3106.75 -1873.7 3106.75 -1861H3108.75C3108.75 -1874.81 3097.56 -1886 3083.75 -1886V-1884ZM-2932.25 -1886C-2946.06 -1886 -2957.25 -1874.81 -2957.25 -1861H-2955.25C-2955.25 -1873.7 -2944.95 -1884 -2932.25 -1884V-1886Z" fill="#BABCD4"/>
<g id=" ">
<rect width="1688" height="594" transform="translate(-768.25 -333)" fill="white"/>
<g id="Iconly/Sharp/Light/Profile">
<path id="Union" d="M11.9999 14.8189C15.2563 14.8106 18.0251 16.3057 19.0428 19.5242C16.9914 20.7748 14.5768 21.2564 11.9999 21.2501C9.42304 21.2564 7.0084 20.7748 4.95703 19.5242C5.97593 16.3022 8.74006 14.8105 11.9999 14.8189Z" stroke="#110E47" stroke-width="1.5" stroke-linecap="square"/>
<circle id="Ellipse 11" cx="12.0001" cy="7.16973" r="4.41973" stroke="#110E47" stroke-width="1.5" stroke-linecap="square"/>
</g>
</g>
</g>
</svg>
