<svg width="24" height="24" viewBox="0 0 24 24" fill="none" xmlns="http://www.w3.org/2000/svg">
<g id="Iconly">
<path d="M-2284.25 -1749C-2284.25 -1762.25 -2273.5 -1773 -2260.25 -1773H3755.75C3769 -1773 3779.75 -1762.25 3779.75 -1749V2787C3779.75 2800.25 3769 2811 3755.75 2811H-2260.25C-2273.5 2811 -2284.25 2800.25 -2284.25 2787V-1749Z" fill="white"/>
<path d="M-2260.25 -1772H3755.75V-1774H-2260.25V-1772ZM3778.75 -1749V2787H3780.75V-1749H3778.75ZM3755.75 2810H-2260.25V2812H3755.75V2810ZM-2283.25 2787V-1749H-2285.25V2787H-2283.25ZM-2260.25 2810C-2272.95 2810 -2283.25 2799.7 -2283.25 2787H-2285.25C-2285.25 2800.81 -2274.06 2812 -2260.25 2812V2810ZM3778.75 2787C3778.75 2799.7 3768.45 2810 3755.75 2810V2812C3769.56 2812 3780.75 2800.81 3780.75 2787H3778.75ZM3755.75 -1772C3768.45 -1772 3778.75 -1761.7 3778.75 -1749H3780.75C3780.75 -1762.81 3769.56 -1774 3755.75 -1774V-1772ZM-2260.25 -1774C-2274.06 -1774 -2285.25 -1762.81 -2285.25 -1749H-2283.25C-2283.25 -1761.7 -2272.95 -1772 -2260.25 -1772V-1774Z" fill="#BABCD4"/>
<g id=" ">
<rect width="1688" height="594" transform="translate(-96.25 -221)" fill="white"/>
<g id="Iconly/Sharp/Light/Search">
<circle id="Ellipse_739" cx="10.9985" cy="10.7888" r="8.03854" stroke="#110E47" stroke-width="1.5" stroke-linecap="square"/>
<path id="Line_181" d="M16.4872 16.7084L21.0407 21.25" stroke="#110E47" stroke-width="1.5" stroke-linecap="square"/>
</g>
</g>
</g>
</svg>
