<svg width="24" height="24" viewBox="0 0 24 24" fill="none" xmlns="http://www.w3.org/2000/svg">
<g id="Iconly">
<path d="M-2452.25 -1861C-2452.25 -1874.25 -2441.5 -1885 -2428.25 -1885H3587.75C3601 -1885 3611.75 -1874.25 3611.75 -1861V2675C3611.75 2688.25 3601 2699 3587.75 2699H-2428.25C-2441.5 2699 -2452.25 2688.25 -2452.25 2675V-1861Z" fill="white"/>
<path d="M-2428.25 -1884H3587.75V-1886H-2428.25V-1884ZM3610.75 -1861V2675H3612.75V-1861H3610.75ZM3587.75 2698H-2428.25V2700H3587.75V2698ZM-2451.25 2675V-1861H-2453.25V2675H-2451.25ZM-2428.25 2698C-2440.95 2698 -2451.25 2687.7 -2451.25 2675H-2453.25C-2453.25 2688.81 -2442.06 2700 -2428.25 2700V2698ZM3610.75 2675C3610.75 2687.7 3600.45 2698 3587.75 2698V2700C3601.56 2700 3612.75 2688.81 3612.75 2675H3610.75ZM3587.75 -1884C3600.45 -1884 3610.75 -1873.7 3610.75 -1861H3612.75C3612.75 -1874.81 3601.56 -1886 3587.75 -1886V-1884ZM-2428.25 -1886C-2442.06 -1886 -2453.25 -1874.81 -2453.25 -1861H-2451.25C-2451.25 -1873.7 -2440.95 -1884 -2428.25 -1884V-1886Z" fill="#BABCD4"/>
<g id=" ">
<rect width="1688" height="594" transform="translate(-264.25 -333)" fill="white"/>
<g id="Iconly/Sharp/Light/Setting">
<path id="Vector" d="M12.0002 15.6875C14.0367 15.6875 15.6877 14.0365 15.6877 11.9999C15.6877 9.96335 14.0367 8.31238 12.0002 8.31238C9.96359 8.31238 8.31262 9.96335 8.31262 11.9999C8.31262 14.0365 9.96359 15.6875 12.0002 15.6875Z" stroke="#110E47" stroke-width="1.5" stroke-linecap="square"/>
<path id="Union" d="M18.8038 18.7156L18.3659 15.6753L21.2177 14.5345V9.46567L18.3669 8.32522L18.8049 5.28442L14.4152 2.75L12.0006 4.64979L9.5861 2.75L5.19636 5.28442L5.63427 8.32471L2.78223 9.46567V14.5345L5.63527 15.6759L5.19744 18.7156L9.58718 21.25L12.0006 19.3511L14.4141 21.25L18.8038 18.7156Z" stroke="#110E47" stroke-width="1.5" stroke-linecap="square"/>
</g>
</g>
</g>
</svg>
