<svg width="24" height="24" viewBox="0 0 24 24" fill="none" xmlns="http://www.w3.org/2000/svg">
<g id="Iconly">
<path d="M-2732.25 -1915.6C-2732.25 -1928.86 -2721.5 -1939.6 -2708.25 -1939.6H3307.75C3321 -1939.6 3331.75 -1928.86 3331.75 -1915.6V2620.4C3331.75 2633.65 3321 2644.4 3307.75 2644.4H-2708.25C-2721.5 2644.4 -2732.25 2633.65 -2732.25 2620.4V-1915.6Z" fill="white"/>
<path d="M-2708.25 -1938.6H3307.75V-1940.6H-2708.25V-1938.6ZM3330.75 -1915.6V2620.4H3332.75V-1915.6H3330.75ZM3307.75 2643.4H-2708.25V2645.4H3307.75V2643.4ZM-2731.25 2620.4V-1915.6H-2733.25V2620.4H-2731.25ZM-2708.25 2643.4C-2720.95 2643.4 -2731.25 2633.1 -2731.25 2620.4H-2733.25C-2733.25 2634.2 -2722.06 2645.4 -2708.25 2645.4V2643.4ZM3330.75 2620.4C3330.75 2633.1 3320.45 2643.4 3307.75 2643.4V2645.4C3321.56 2645.4 3332.75 2634.2 3332.75 2620.4H3330.75ZM3307.75 -1938.6C3320.45 -1938.6 3330.75 -1928.31 3330.75 -1915.6H3332.75C3332.75 -1929.41 3321.56 -1940.6 3307.75 -1940.6V-1938.6ZM-2708.25 -1940.6C-2722.06 -1940.6 -2733.25 -1929.41 -2733.25 -1915.6H-2731.25C-2731.25 -1928.31 -2720.95 -1938.6 -2708.25 -1938.6V-1940.6Z" fill="#BABCD4"/>
<g id=" ">
<rect width="1688" height="594" transform="translate(-544.25 -387.604)" fill="white"/>
<g id="Iconly/Sharp/Light/Show">
<path id="Stroke 1" fill-rule="evenodd" clip-rule="evenodd" d="M15.0076 13.7221C15.0076 15.4681 13.5916 16.8831 11.8456 16.8831C10.0996 16.8831 8.68457 15.4681 8.68457 13.7221C8.68457 11.9751 10.0996 10.5601 11.8456 10.5601C13.5916 10.5601 15.0076 11.9751 15.0076 13.7221Z" stroke="#110E47" stroke-width="1.5" stroke-linecap="square"/>
<path id="Stroke 3" d="M21.0967 13.7213C19.1357 9.59319 15.6527 7.1167 11.8447 7.1167H11.8487C8.04068 7.1167 4.55768 9.59319 2.59668 13.7213" stroke="#110E47" stroke-width="1.5" stroke-linecap="square"/>
</g>
</g>
</g>
</svg>
