<svg width="24" height="24" viewBox="0 0 24 24" fill="none" xmlns="http://www.w3.org/2000/svg">
<g id="Iconly">
<path d="M-3348.25 -1804.53C-3348.25 -1817.79 -3337.5 -1828.53 -3324.25 -1828.53H2691.75C2705 -1828.53 2715.75 -1817.79 2715.75 -1804.53V2731.47C2715.75 2744.72 2705 2755.47 2691.75 2755.47H-3324.25C-3337.5 2755.47 -3348.25 2744.72 -3348.25 2731.47V-1804.53Z" fill="white"/>
<path d="M-3324.25 -1827.53H2691.75V-1829.53H-3324.25V-1827.53ZM2714.75 -1804.53V2731.47H2716.75V-1804.53H2714.75ZM2691.75 2754.47H-3324.25V2756.47H2691.75V2754.47ZM-3347.25 2731.47V-1804.53H-3349.25V2731.47H-3347.25ZM-3324.25 2754.47C-3336.95 2754.47 -3347.25 2744.17 -3347.25 2731.47H-3349.25C-3349.25 2745.27 -3338.06 2756.47 -3324.25 2756.47V2754.47ZM2714.75 2731.47C2714.75 2744.17 2704.45 2754.47 2691.75 2754.47V2756.47C2705.56 2756.47 2716.75 2745.27 2716.75 2731.47H2714.75ZM2691.75 -1827.53C2704.45 -1827.53 2714.75 -1817.24 2714.75 -1804.53H2716.75C2716.75 -1818.34 2705.56 -1829.53 2691.75 -1829.53V-1827.53ZM-3324.25 -1829.53C-3338.06 -1829.53 -3349.25 -1818.34 -3349.25 -1804.53H-3347.25C-3347.25 -1817.24 -3336.95 -1827.53 -3324.25 -1827.53V-1829.53Z" fill="#BABCD4"/>
<g id=" ">
<rect width="1688" height="594" transform="translate(-1160.25 -276.535)" fill="white"/>
<g id="Iconly/Sharp/Light/Tick Square">
<path id="Stroke 3" d="M8.37075 11.2583C10.4598 12.579 12.0207 14.939 12.0207 14.939H12.052C12.052 14.939 15.368 9.0712 21.5286 5.4624" stroke="#110E47" stroke-width="1.5" stroke-linecap="square"/>
<path id="Stroke 1" fill-rule="evenodd" clip-rule="evenodd" d="M11.7212 21.25C16.8298 21.25 20.9712 17.1086 20.9712 12C20.9712 6.89137 16.8298 2.75 11.7212 2.75C6.61256 2.75 2.47119 6.89137 2.47119 12C2.47119 17.1086 6.61256 21.25 11.7212 21.25Z" stroke="#110E47" stroke-width="1.5" stroke-linecap="round"/>
</g>
</g>
</g>
</svg>
